<svg width="1em" height="1em" viewBox="0 0 58 58" fill="none" xmlns="http://www.w3.org/2000/svg">
<path class='icon' d="M29 0C45.0163 0 58 12.9837 58 29C58 45.0163 45.0163 58 29 58C12.9837 58 0 45.0163 0 29C0 12.9837 12.9837 0 29 0V0ZM31.263 15.86L31.019 15.6494C30.2621 15.0878 29.2233 15.0809 28.4595 15.6286L28.187 15.86L27.9764 16.1039C27.4149 16.8608 27.4079 17.8996 27.9557 18.6635L28.187 18.9359L36.074 26.823H16.673L16.3778 26.8428C15.4127 26.9737 14.6487 27.7377 14.5178 28.7028L14.498 28.998L14.5178 29.2931C14.6487 30.2582 15.4127 31.0222 16.3778 31.1531L16.673 31.173H36.074L28.1853 39.0621L27.9747 39.306C27.3427 40.1573 27.4127 41.3657 28.1847 42.138C28.9567 42.9103 30.165 42.9808 31.0166 42.3491L31.2606 42.1386L42.865 30.5386L43.0757 30.2947C43.6375 29.5378 43.6445 28.4988 43.0968 27.7349L42.8653 27.4624L31.263 15.86L31.019 15.6494L31.263 15.86Z" fill="#212121"/>
</svg>
