<svg width="1em" height="1em" viewBox="0 0 58 58" fill="none" xmlns="http://www.w3.org/2000/svg">
<path d="M29 58C12.9837 58 3.9961e-06 45.0163 5.39628e-06 29C6.79647e-06 12.9837 12.9837 -1.07442e-06 29 3.25763e-07C45.0163 1.72595e-06 58 12.9837 58 29C58 45.0163 45.0163 58 29 58V58ZM26.737 42.14L26.981 42.3506C27.7379 42.9122 28.7767 42.9191 29.5405 42.3714L29.813 42.14L30.0236 41.8961C30.5851 41.1392 30.5921 40.1004 30.0444 39.3365L29.813 39.0641L21.926 31.177L41.327 31.177L41.6222 31.1572C42.5873 31.0263 43.3513 30.2623 43.4822 29.2972L43.502 29.002L43.4822 28.7069C43.3513 27.7418 42.5873 26.9778 41.6222 26.8469L41.327 26.827L21.926 26.827L29.8147 18.9379L30.0253 18.694C30.6573 17.8426 30.5873 16.6343 29.8153 15.862C29.0433 15.0897 27.835 15.0192 26.9834 15.6509L26.7394 15.8614L15.135 27.4614L14.9243 27.7053C14.3625 28.4622 14.3555 29.5012 14.9032 30.2651L15.1347 30.5376L26.737 42.14L26.981 42.3506L26.737 42.14Z" fill="#212121"/>
</svg>
